<svg xmlns="http://www.w3.org/2000/svg" width="18.829" height="20.6" viewBox="0 0 18.829 20.6">
  <g id="Group_30" data-name="Group 30" transform="translate(0.3 0.3)">
    <path id="Path_44" data-name="Path 44" d="M98.891-370.642c.211-.253.447-.426.756-.257s.326.506.325.852c0,1.749.025,3.5-.009,5.246a2.605,2.605,0,0,0,2.436,2.874q5.6-.075,11.208,0a2.609,2.609,0,0,0,2.438-2.876c-.029-1.716,0-3.434-.008-5.151,0-.347.012-.682.325-.851s.545.008.757.259v6.684c-.026.09-.053.18-.077.271-.516,1.92-1.761,3-3.476,3q-5.6,0-11.208,0a3.069,3.069,0,0,1-1.637-.448,4.168,4.168,0,0,1-1.831-2.826Z" transform="translate(-98.891 380.588)" fill="#157aff" stroke="#157aff" stroke-width="0.6"/>
    <path id="Path_45" data-name="Path 45" d="M167.487-458.782a.966.966,0,0,0,.045-.511q.005-5.7,0-11.406c0-.694.21-1.023.65-1.025s.658.332.658,1.02q0,5.7,0,11.406v.508l2.317-2.228a6.457,6.457,0,0,1,.523-.487.6.6,0,0,1,.894.074.579.579,0,0,1-.017.859c-1.281,1.305-2.565,2.608-3.868,3.892-.378.373-.7.319-1.156-.129q-1.762-1.747-3.512-3.508c-.056-.056-.111-.114-.162-.175-.3-.364-.314-.708-.039-.977a.639.639,0,0,1,.975.054c.786.766,1.549,1.555,2.325,2.331C167.234-458.977,167.315-458.831,167.487-458.782Z" transform="translate(-159.093 471.725)" fill="#157aff" stroke="#157aff" stroke-width="0.6"/>
  </g>
</svg>
