<svg xmlns="http://www.w3.org/2000/svg" width="27.582" height="20.156" viewBox="0 0 27.582 20.156">
  <path id="Icon_ionic-ios-arrow-round-back" data-name="Icon ionic-ios-arrow-round-back" d="M18.51,11.626a1.332,1.332,0,0,1,.01,1.875l-6.185,6.206H33.649a1.325,1.325,0,0,1,0,2.649H12.335l6.2,6.206a1.341,1.341,0,0,1-.01,1.875,1.319,1.319,0,0,1-1.865-.01l-8.4-8.458h0a1.488,1.488,0,0,1-.275-.418,1.264,1.264,0,0,1-.1-.51,1.328,1.328,0,0,1,.377-.927l8.4-8.458A1.3,1.3,0,0,1,18.51,11.626Z" transform="translate(-7.632 -11.002)" fill="#fff" stroke="#fff" stroke-width="0.5"/>
</svg>
