<svg xmlns="http://www.w3.org/2000/svg" width="23.019" height="15.394" viewBox="0 0 23.019 15.394">
  <g id="Group_29" data-name="Group 29" transform="translate(0.25 0.25)">
    <path id="Path_37" data-name="Path 37" d="M146.42-460.414h-9.606a1.854,1.854,0,0,1-1.671-2.046q0-5.375,0-10.751a1.864,1.864,0,0,1,1.676-2.075c6.354,0,12.707.008,19.061-.011a1.808,1.808,0,0,1,1.7,1.419,2.277,2.277,0,0,1,.071.608c0,3.573-.018,7.147.011,10.72a1.985,1.985,0,0,1-1.736,2.148C152.757-460.435,149.588-460.415,146.42-460.414Zm-.026-13.845v0q-4.728,0-9.456,0a1.533,1.533,0,0,0-.447.06.677.677,0,0,0-.467.579,2.861,2.861,0,0,0-.047.551q0,5.16,0,10.319c0,1.054.207,1.309,1.066,1.309h18.837c.691,0,.936-.306.939-1.157,0-.041,0-.082,0-.124q0-5.083,0-10.165c0-1.139-.184-1.372-1.118-1.373Z" transform="translate(-135.142 475.296)" fill="#157aff" stroke="#157aff" stroke-width="0.5"/>
    <path id="Path_38" data-name="Path 38" d="M194.754-385.834a3.414,3.414,0,0,1,.37,0,.5.5,0,0,1,.452.53.48.48,0,0,1-.463.484,6.185,6.185,0,0,1-.648,0c-.2-.007-.208.066-.117.214s.192.317.274.483a.517.517,0,0,1-.191.721.522.522,0,0,1-.719-.206c-.1-.146-.176-.3-.266-.452-.075-.126-.148-.126-.221,0-.085.153-.168.307-.263.453a.531.531,0,0,1-.724.2.516.516,0,0,1-.192-.72,4.142,4.142,0,0,1,.26-.455c.149-.224.039-.254-.161-.243-.154.008-.308,0-.463,0-.374-.005-.59-.2-.588-.522s.209-.5.572-.5c.175,0,.35-.009.524,0,.22.013.221-.072.123-.228s-.181-.3-.26-.455a.52.52,0,0,1,.17-.728.542.542,0,0,1,.744.209c.126.179.162.514.381.507.169-.005.231-.332.348-.511a.539.539,0,0,1,.747-.206.524.524,0,0,1,.174.726c-.036.074-.088.14-.122.214-.066.146-.257.291-.179.428C194.382-385.764,194.6-385.856,194.754-385.834Z" transform="translate(-187.63 392.77)" fill="#157aff" stroke="#157aff" stroke-width="1"/>
    <path id="Path_39" data-name="Path 39" d="M369.874-385.835c.31,0,.555-.005.8,0a.5.5,0,0,1,.536.509.5.5,0,0,1-.535.512c-.113,0-.226,0-.34,0-.461,0-.469.015-.232.427.051.089.108.176.153.268a.516.516,0,0,1-.19.72.519.519,0,0,1-.719-.207c-.1-.146-.183-.3-.269-.45-.074-.132-.146-.132-.22,0s-.14.252-.211.377a.551.551,0,0,1-.77.286c-.285-.154-.343-.45-.153-.8.074-.136.146-.272.23-.4.12-.186.043-.226-.14-.218a5.808,5.808,0,0,1-.586,0,.5.5,0,0,1-.5-.516.5.5,0,0,1,.513-.5,3.756,3.756,0,0,1,.525,0c.3.027.285-.085.153-.285a3.5,3.5,0,0,1-.242-.43.511.511,0,0,1,.213-.713.547.547,0,0,1,.721.224c.121.182.154.516.374.512.182,0,.231-.332.352-.508a.539.539,0,0,1,.744-.214.523.523,0,0,1,.17.728C370.144-386.308,370.023-386.106,369.874-385.835Z" transform="translate(-352.388 392.77)" fill="#157aff" stroke="#157aff" stroke-width="1"/>
    <path id="Path_41" data-name="Path 41" d="M282.594-384.824c-.525,0-.524,0-.259.472a2.505,2.505,0,0,1,.157.3.5.5,0,0,1-.212.641.511.511,0,0,1-.667-.122,4.116,4.116,0,0,1-.3-.5c-.1-.181-.186-.159-.277.007-.079.144-.156.291-.247.427a.529.529,0,0,1-.726.186.523.523,0,0,1-.178-.7c.017-.037.038-.073.058-.109.327-.593.327-.593-.335-.6a1.69,1.69,0,0,1-.246-.009.485.485,0,0,1-.423-.522.465.465,0,0,1,.431-.482,2.678,2.678,0,0,1,.585-.009c.306.027.3-.085.163-.3a3.461,3.461,0,0,1-.24-.431.5.5,0,0,1,.2-.692.521.521,0,0,1,.7.183c.1.144.179.3.265.453s.167.17.259.006.167-.309.264-.453a.525.525,0,0,1,.728-.174.51.51,0,0,1,.165.7c-.084.165-.172.328-.271.485-.118.188-.042.225.142.217s.371-.006.556,0a.494.494,0,0,1,.528.517.5.5,0,0,1-.513.5C282.8-384.818,282.7-384.824,282.594-384.824Z" transform="translate(-270.032 392.781)" fill="#157aff" stroke="#157aff" stroke-width="1"/>
  </g>
</svg>
