<svg xmlns="http://www.w3.org/2000/svg" width="32.91" height="21.72" viewBox="0 0 32.91 21.72">
  <g id="Group_22" data-name="Group 22" transform="translate(0.48 0.401)" opacity="0.5">
    <path id="Path_32" data-name="Path 32" d="M281.107-452.037c-.043.364.329.453.32.728-.009.238-.19.345-.362.453a.5.5,0,0,1-.687-.1,2.463,2.463,0,0,1-.574-2.057c.05-.394.392-.495.756-.478a2.758,2.758,0,0,1,1.908.836.581.581,0,0,0,.9.088c5.168-3.642,12.924-3.191,17.7.107a.906.906,0,0,0,1.166.027c.912-.6,1.838-1.181,2.77-1.75.351-.215.709-.6,1.163-.219s.152.8.05,1.2c-.163.64-.33,1.279-.524,1.91a.539.539,0,0,0,.358.773,5.828,5.828,0,0,1,3.035,2.869c.323.649.87.524,1.371.539,1.209.038,1.147.068,1.272,1.236.353,3.29-1.381,5.245-4.059,6.659a16.392,16.392,0,0,1-4.745,1.6c-.541.1-.736.328-.715.852.022.557,0,1.117-.014,1.675a.8.8,0,0,1-.909.88c-1.067-.008-2.134-.013-3.2,0a1.238,1.238,0,0,1-1.117-.8,2.016,2.016,0,0,0-2.472-1.1,10.5,10.5,0,0,1-4.68-.3c-.7-.2-.882,0-.876.694.013,1.495-.027,1.5-1.559,1.505-1.118,0-2.237-.027-3.353.009a1.018,1.018,0,0,1-1.195-.971c-.354-2.025-.737-4.045-1.116-6.066a2.682,2.682,0,0,0-.481-1.183,6.338,6.338,0,0,1,.183-8.386C281.992-451.5,281.931-451.77,281.107-452.037Zm23.57-.309-.161-.092c-.77.486-1.555.949-2.3,1.467a.91.91,0,0,1-1.289-.075,8.607,8.607,0,0,0-1.977-1.278,15.85,15.85,0,0,0-8.144-1.506,12.405,12.405,0,0,0-7.515,2.768c-2.537,2.175-3.057,5.235-1.24,7.65a5.367,5.367,0,0,1,.977,2.424q.313,1.8.661,3.594c.379,1.948.384,1.947,2.353,1.926,1.609-.017,1.609-.017,1.659-1.593.03-.957.332-1.185,1.254-.862a13.394,13.394,0,0,0,6.691.44,1.219,1.219,0,0,1,1.422.568,12,12,0,0,0,.769,1.041c.14.18.292.382.544.379.806-.009,1.726.3,2.381-.138.5-.338.113-1.192.192-1.811a.33.33,0,0,0,0-.076c-.082-.764.276-1.1,1.026-1.19a14.219,14.219,0,0,0,4.535-1.245c2.2-1.06,4.181-2.294,3.961-5.242-.049-.651-.244-.8-.792-.719a1.321,1.321,0,0,1-1.535-.911,4.538,4.538,0,0,0-3.309-2.778c-.6-.12-.778-.486-.6-1.069C304.4-451.225,304.532-451.788,304.677-452.346Z" transform="translate(-279.743 455.116)" fill="#fff" stroke="#fff" stroke-width="0.8"/>
    <path id="Path_34" data-name="Path 34" d="M340.509-439.648a20.71,20.71,0,0,0-2.739-.668,9.711,9.711,0,0,0-4.487.537c-.432.142-.883.315-1.087-.255-.185-.516.241-.726.63-.872a10.934,10.934,0,0,1,7.886.057c.334.124.6.321.529.724C341.178-439.775,340.933-439.616,340.509-439.648Z" transform="translate(-325.497 445.009)" fill="#fff" stroke="#fff" stroke-width="0.8"/>
    <path id="Path_35" data-name="Path 35" d="M441.665-410.4a.8.8,0,0,1,.83-.889.794.794,0,0,1,.863.854.775.775,0,0,1-.791.845A.809.809,0,0,1,441.665-410.4Z" transform="translate(-418.311 419.309)" fill="#fff" stroke="#fff" stroke-width="0.8"/>
  </g>
</svg>
