<svg xmlns="http://www.w3.org/2000/svg" width="25.109" height="30.17" viewBox="0 0 25.109 30.17">
  <g id="Group_20" data-name="Group 20" transform="translate(0.298 0.302)" opacity="0.5">
    <path id="Path_22" data-name="Path 22" d="M-182.139-729.294h-11.63a.7.7,0,0,1-.323-.04.5.5,0,0,1-.288-.47c0-.8,0-1.591,0-2.386a.557.557,0,0,1,.316-.5q2.107-1.231,4.209-2.468l6.606-3.869c.266-.156.532-.311.8-.47a.566.566,0,0,1,.632.006q2.787,1.665,5.577,3.323,3.026,1.8,6.053,3.6a.525.525,0,0,1,.283.443c.025.433.009.866.01,1.3,0,.348.018.7-.012,1.045a.48.48,0,0,1-.538.488h-11.69Zm-11.355-2.9c.267.22.1.468.1.59q.006.6,0,1.209c0,.092.038.126.126.12.05,0,.1,0,.149,0h16.141q2.949,0,5.9,0c.142,0,.192-.04.188-.185-.01-.313,0-.627,0-.941l-.557-.449-1-.758h.208c-.75-.48-1.5-.928-2.254-1.375q-1.931-1.148-3.862-2.3-1.821-1.084-3.639-2.172a.231.231,0,0,0-.271-.016q-2,1.179-4,2.35l-4.557,2.673Z" transform="translate(194.395 739.594)" fill="#fff" stroke="#fff" stroke-width="0.6"/>
    <path id="Path_23" data-name="Path 23" d="M-191.188-348.458q-1.545,0-3.091,0a.45.45,0,0,1-.5-.423,4.934,4.934,0,0,1,.027-1.322,1.223,1.223,0,0,1,1.146-.965c.256-.01.356-.124.336-.382,0-.03-.005-.059-.005-.089q0-3.912,0-7.824,0-1.388,0-2.775a.278.278,0,0,0-.282-.316,1.235,1.235,0,0,1-1.229-1.182,8.511,8.511,0,0,1,.006-1.267.453.453,0,0,1,.5-.441h6.181a.472.472,0,0,1,.507.5c0,.4,0,.8,0,1.194a1.245,1.245,0,0,1-1.158,1.19c-.273.011-.363.1-.363.378q0,5.323,0,10.646c0,.263.091.354.359.365a1.25,1.25,0,0,1,1.163,1.187c.006.343,0,.687,0,1.03a.472.472,0,0,1-.5.492Q-189.642-348.457-191.188-348.458Zm-1.1-8.408v1.3c0,1.388,0,2.776,0,4.165a1.217,1.217,0,0,1-1.061,1.2c-.407.025-.486.14-.461.531,0,.01,0,.02,0,.03,0,.206,0,.207.2.207h4.628c.393,0,.393,0,.389-.4,0-.262-.067-.332-.335-.35a1.233,1.233,0,0,1-.615-.205,1.31,1.31,0,0,1-.574-1.179q.007-3.635.01-7.269c0-1.109-.007-2.219-.009-3.328a1.39,1.39,0,0,1,.1-.6,1.227,1.227,0,0,1,1.113-.771c.211-.011.3-.11.306-.323,0-.154,0-.309.007-.463,0-.11-.039-.152-.149-.148-.169.006-.338,0-.507,0H-193.6c-.209,0-.209,0-.21.214,0,.129,0,.259,0,.388,0,.219.1.33.316.329a1.282,1.282,0,0,1,1.212,1.281C-192.293-360.459-192.283-358.663-192.283-356.866Z" transform="translate(194.813 378.026)" fill="#fff" stroke="#fff" stroke-width="0.6"/>
    <path id="Path_24" data-name="Path 24" d="M100.783-356.866q0,2.635,0,5.271a.628.628,0,0,0,.03.25.285.285,0,0,0,.285.174,1.241,1.241,0,0,1,1.192,1.041,4.191,4.191,0,0,1,.015.6c0,.189,0,.378,0,.567a.459.459,0,0,1-.5.5q-3.1,0-6.2,0a.453.453,0,0,1-.493-.493q0-.493,0-.985a1.226,1.226,0,0,1,1.191-1.228c.234-.01.315-.1.315-.371q0-3.836,0-7.673,0-1.492,0-2.984c0-.274-.076-.351-.352-.363a1.237,1.237,0,0,1-1.152-1.177c-.005-.408,0-.816,0-1.224a.459.459,0,0,1,.488-.486h6.211a.466.466,0,0,1,.489.487c0,.408.005.816,0,1.224a1.245,1.245,0,0,1-1.142,1.175c-.3.014-.378.1-.378.394Q100.782-359.516,100.783-356.866Zm-3.167-.015q0,2.732,0,5.464a1.251,1.251,0,0,1-1.051,1.216c-.473.076-.473.076-.472.561a.093.093,0,0,1,0,.015c-.027.156.046.189.193.189,1.543,0,3.085,0,4.628,0,.451,0,.451,0,.413-.457a.281.281,0,0,0-.27-.282c-.059-.008-.119-.012-.178-.019a1.253,1.253,0,0,1-1.072-1.118c-.011-.2-.018-.408-.017-.612,0-.726.022-1.452.009-2.178-.014-.821-.006-1.642-.009-2.463,0-.661.019-1.323.011-1.984q-.023-1.881,0-3.761a1.26,1.26,0,0,1,1.216-1.228.294.294,0,0,0,.31-.326c0-.144-.008-.289,0-.433s-.043-.175-.179-.175c-1.11,0-2.22,0-3.329,0-.527,0-1.055,0-1.582,0-.108,0-.154.03-.149.144.007.159,0,.318,0,.478a.283.283,0,0,0,.305.311,1.276,1.276,0,0,1,1.223,1.315C97.6-360.444,97.616-358.663,97.616-356.881Z" transform="translate(-86.455 378.03)" fill="#fff" stroke="#fff" stroke-width="0.6"/>
    <path id="Path_25" data-name="Path 25" d="M387.774-365.445h3.061c.337,0,.524.149.538.483a5.945,5.945,0,0,1-.034,1.428,1.208,1.208,0,0,1-1.164.977c-.212.01-.3.1-.312.316-.035.99-.011,1.98-.013,2.97q0,.955,0,1.91,0,1.254,0,2.508,0,1.38,0,2.761c0,.2.008.408.015.611s.091.3.312.311a1.22,1.22,0,0,1,1.175,1.022,4.931,4.931,0,0,1,.012,1.295.455.455,0,0,1-.5.393H386.74q-1.023,0-2.045,0a.47.47,0,0,1-.516-.519c0-.333,0-.667,0-1a1.247,1.247,0,0,1,1.144-1.19c.3-.015.377-.1.378-.394q0-2.381,0-4.762,0-2.889,0-5.778c0-.04,0-.08,0-.119a.3.3,0,0,0-.334-.335,1.234,1.234,0,0,1-1.187-1.236q0-.575,0-1.15a.468.468,0,0,1,.5-.5Zm.014.977h0c-.826,0-1.652,0-2.479,0-.116,0-.162.034-.156.153.008.144,0,.289,0,.433,0,.232.1.334.335.349a1.23,1.23,0,0,1,1.188,1.264q0,1.418,0,2.836,0,4.031,0,8.063a1.238,1.238,0,0,1-1.1,1.177c-.351.025-.421.1-.418.451a.765.765,0,0,1,0,.119c-.024.156.048.19.194.189,1.568,0,3.136,0,4.7,0,.339,0,.339,0,.339-.339,0-.312-.071-.39-.375-.415a1.235,1.235,0,0,1-1.148-1.244q0-5.428,0-10.855a1.245,1.245,0,0,1,.012-.208,1.25,1.25,0,0,1,1.183-1.035.3.3,0,0,0,.327-.34c0-.144-.008-.289,0-.433s-.042-.166-.171-.165C389.411-364.466,388.6-364.469,387.788-364.469Z" transform="translate(-366.886 378.027)" fill="#fff" stroke="#fff" stroke-width="0.6"/>
  </g>
</svg>
