<svg xmlns="http://www.w3.org/2000/svg" width="26.6" height="18.214" viewBox="0 0 26.6 18.214">
  <g id="Group_8" data-name="Group 8" transform="translate(-58.291 -118.106)">
    <path id="Path_4" data-name="Path 4" d="M71.609,118.422c3.361,0,6.723.036,10.083-.016a2.9,2.9,0,0,1,2.9,2.888c-.045,3.993-.012,7.988-.015,11.982a2.743,2.743,0,0,1-2.752,2.743q-10.214,0-20.429,0a2.729,2.729,0,0,1-2.8-2.791q-.009-5.991,0-11.982a2.715,2.715,0,0,1,2.832-2.823q5.091-.009,10.182,0Zm0,7.643q-5.892,0-11.785,0c-.282,0-.4.052-.4.374.014,2.215,0,4.43.009,6.645a1.976,1.976,0,0,0,2.118,2.107q10.05,0,20.1,0a1.972,1.972,0,0,0,2.1-2.1q0-3.29,0-6.58c0-.445,0-.445-.449-.445Zm-.021-.832q5.877,0,11.754.006c.309,0,.417-.082.41-.4q-.028-1.424,0-2.848c.006-.312-.1-.382-.4-.381-2.292.01-4.584.006-6.876.006q-8.316,0-16.632-.007c-.326,0-.436.083-.428.42.022.949.018,1.9,0,2.848-.005.3.1.365.378.365Q65.692,125.226,71.585,125.233Zm0-4.453H83.272c.429,0,.461-.05.255-.437a1.974,1.974,0,0,0-1.876-1.086q-5.417,0-10.834,0H61.553a2,2,0,0,0-1.907,1.092c-.208.39-.178.434.255.434Z" transform="translate(0)" fill="#fff" stroke="#fff" stroke-width="0.6"/>
    <path id="Path_5" data-name="Path 5" d="M331.859,288.146a3.6,3.6,0,0,0-1.839-.048,1.971,1.971,0,0,1-2.079-1.872,2.092,2.092,0,0,1,1.576-2.132,1.8,1.8,0,0,1,1.119.094.729.729,0,0,0,.561,0,2.036,2.036,0,1,1,1.173,3.887C332.232,288.108,332.089,288.115,331.859,288.146Zm-.789-2.06a1.159,1.159,0,0,0-1.147-1.175,1.167,1.167,0,1,0,0,2.333A1.129,1.129,0,0,0,331.07,286.086Zm2.026.005a1.163,1.163,0,0,0-1.174-1.181c-.187,0-.3.019-.183.258a1.987,1.987,0,0,1,0,1.853c-.1.192-.017.22.151.231A1.127,1.127,0,0,0,333.1,286.091Z" transform="translate(-251.698 -154.791)" fill="#fff" stroke="#fff" stroke-width="0.6"/>
    <path id="Path_6" data-name="Path 6" d="M98.279,311.463q-1.506,0-3.011,0c-.367,0-.543-.14-.544-.415s.176-.415.544-.415q3.011,0,6.023,0c.206,0,.4.021.5.229.153.3-.056.6-.438.6-.971.006-1.942,0-2.913,0Z" transform="translate(-33.767 -179.635)" fill="#fff" stroke="#fff" stroke-width="0.6"/>
  </g>
</svg>
