<svg xmlns="http://www.w3.org/2000/svg" width="22.854" height="30" viewBox="0 0 22.854 30">
  <g id="Group_9" data-name="Group 9" transform="translate(190.035 754.405)">
    <path id="Path_7" data-name="Path 7" d="M-190.034-741.458q0-5.93,0-11.859c0-.873.213-1.087,1.076-1.087h20.7c.853,0,1.08.229,1.08,1.089q0,11.882,0,23.765c0,.822-.275,1.1-1.1,1.1-1.633,0-3.266-.009-4.9.008-.421,0-.562-.143-.553-.559.026-1.183-.093-1.026,1.03-1.033,1.145-.007,2.29-.013,3.434,0,.377.006.506-.122.506-.5q-.012-10.9,0-21.8c0-.377-.135-.507-.509-.507q-9.341.011-18.682,0c-.525,0-.5.294-.5.651q0,10.394,0,20.788c0,.305.014.611,0,.916-.018.341.13.453.461.45,1.282-.012,2.564-.005,3.846,0,.644,0,.653.007.652.626,0,1.049.1.958-.961.96q-2.244,0-4.487,0c-.82,0-1.091-.281-1.092-1.106Q-190.035-735.505-190.034-741.458Z" fill="#fff"/>
    <path id="Path_8" data-name="Path 8" d="M-146.853-712.239q-3.594,0-7.188,0c-.812,0-1.037-.191-1.038-.878q0-4.12,0-8.24c0-.72.239-.921,1.1-.921h14.24c.873,0,1.112.2,1.112.952q0,4.081,0,8.162c0,.741-.217.925-1.08.926Zm-.005-1.3c2.044,0,4.088-.008,6.132.006.405,0,.525-.116.523-.452q-.02-3.239,0-6.479c0-.365-.153-.464-.563-.463q-6.086.015-12.172,0c-.447,0-.573.13-.57.5.015,2.133.019,4.267,0,6.4,0,.407.163.5.611.5C-150.886-713.554-148.872-713.544-146.859-713.544Z" transform="translate(-31.753 -29.182)" fill="#fff"/>
    <path id="Path_9" data-name="Path 9" d="M-100.956-557.153q0,2.562,0,5.124c0,.848-.274,1.117-1.129,1.118q-2.882,0-5.765,0c-.826,0-1.1-.276-1.1-1.1q0-5.193,0-10.386c0-.766.254-1.02,1.012-1.021q3,0,5.994,0c.728,0,.989.263.991,1C-100.953-560.661-100.956-558.907-100.956-557.153Zm-1.588-.022c0-1.418-.008-2.836.006-4.254,0-.319-.095-.417-.418-.412-1.326.018-2.653.02-3.98,0-.349-.005-.44.1-.438.439q.017,4.208,0,8.417c0,.386.141.5.51.5,1.265-.016,2.531-.018,3.8,0,.395.006.536-.118.531-.523C-102.556-554.4-102.544-555.788-102.543-557.175Z" transform="translate(-73.652 -173.496)" fill="#fff"/>
    <path id="Path_10" data-name="Path 10" d="M-125.923-587.284q2.518,0,5.036,0c.8,0,1.072.271,1.074,1.07,0,.824-.012,1.648.006,2.472.008.37-.116.523-.5.517-1.254-.019-1.079.1-1.093-1.064,0-.305-.019-.612,0-.915.028-.383-.131-.5-.505-.5-1.5.015-2.991.006-4.486.006-1.175,0-2.35.016-3.525-.008-.431-.009-.564.148-.542.559.026.487,0,.977.009,1.464.009.337-.138.459-.466.456-1.322-.012-1.106.1-1.122-1.075-.009-.671-.006-1.343,0-2.014.006-.688.283-.965.983-.967C-129.341-587.287-127.632-587.284-125.923-587.284Z" transform="translate(-52.684 -151.812)" fill="#fff"/>
    <path id="Path_11" data-name="Path 11" d="M-87.71-515.482a2.258,2.258,0,0,1-2.223-2.263,2.284,2.284,0,0,1,2.266-2.239,2.29,2.29,0,0,1,2.248,2.306A2.269,2.269,0,0,1-87.71-515.482Zm.7-2.243a.672.672,0,0,0-.664-.676.671.671,0,0,0-.666.673.628.628,0,0,0,.663.658A.632.632,0,0,0-87.011-517.725Z" transform="translate(-90.932 -212.948)" fill="#fff"/>
  </g>
</svg>
