<svg xmlns="http://www.w3.org/2000/svg" width="26.588" height="24.217" viewBox="0 0 26.588 24.217">
  <g id="Group_4" data-name="Group 4" transform="translate(-171.936 -221)">
    <path id="Path_1" data-name="Path 1" d="M183.915,255.692q-3.638,0-7.276,0c-2.707,0-4.412-1.521-4.449-4.216q-.107-7.69,0-15.383c.038-2.715,1.714-4.21,4.439-4.214q5.622-.008,11.244,0a6.277,6.277,0,0,1,.661.017.663.663,0,0,1,.67.695.679.679,0,0,1-.671.7,5.876,5.876,0,0,1-.743.021q-5.457,0-10.913,0c-2.21,0-3.174.964-3.175,3.158q0,7.363,0,14.725c0,2.033.988,3.047,3.036,3.054q7.151.024,14.3,0a2.612,2.612,0,0,0,2.949-2.942c.009-2.523,0-5.045,0-7.568a6.858,6.858,0,0,1,.031-.821c.054-.443.232-.817.755-.812.574.005.742.4.743.891,0,3.016.054,6.034-.024,9.048a3.888,3.888,0,0,1-3.9,3.636c-2.563.025-5.126.006-7.689.006Z" transform="translate(0 -10.678)" fill="#fff" stroke="#fff" stroke-width="0.4"/>
    <path id="Path_2" data-name="Path 2" d="M219.416,274.1c.156,1.093.66,1.529,1.653,1.393a.652.652,0,0,1,.786.654.674.674,0,0,1-.755.779,1.709,1.709,0,0,0-1.281.383,2.969,2.969,0,0,0-.627.806,2.938,2.938,0,0,1-2.562,1.418c-.436.018-.874,0-1.461,0a5.594,5.594,0,0,0,1.162,1.266c.809.784,1.639,1.545,2.457,2.32.389.368.681.81.229,1.277s-.906.172-1.289-.191q-2.423-2.3-4.841-4.6c-.279-.266-.59-.539-.431-.986.17-.479.585-.519,1.017-.518q1.363,0,2.726,0a2.194,2.194,0,0,0,1.512-.558c.117-.106.289-.219.217-.4s-.28-.138-.436-.139c-1.212-.006-2.424.009-3.635-.011-.6-.01-1.384.064-1.412-.759-.03-.882.77-.75,1.36-.755,1.267-.011,2.534,0,3.8-.008.177,0,.426.093.51-.142.072-.2-.111-.353-.236-.494a2.174,2.174,0,0,0-1.689-.727c-.936-.007-1.873-.007-2.809-.005-.488,0-.93-.134-.95-.684-.023-.608.438-.751.961-.75q3.759,0,7.519,0c.48,0,.919.1.939.677.022.628-.423.758-.945.757C220.418,274.1,219.93,274.1,219.416,274.1Z" transform="translate(-33.615 -44.723)" fill="#fff" stroke="#fff" stroke-width="0.4"/>
    <g id="Path_3" data-name="Path 3" transform="translate(-87.174 3)" fill="#fff">
      <path d="M 281.9940490722656 226.2662963867188 C 281.8706665039062 226.2662963867188 281.7376403808594 226.1959991455078 281.5986022949219 226.0573272705078 C 281.12353515625 225.5832366943359 280.647705078125 225.1098175048828 280.171875 224.6364288330078 C 279.668701171875 224.1358184814453 279.1655578613281 223.6352081298828 278.6632690429688 223.1337890625 C 278.3842468261719 222.8551788330078 278.4595947265625 222.7005462646484 278.5826110839844 222.574951171875 C 278.6590270996094 222.4968719482422 278.7308349609375 222.4589385986328 278.8021850585938 222.4589385986328 C 278.8959655761719 222.4589385986328 279.0122375488281 222.5248565673828 279.1383972167969 222.6495819091797 C 279.3377380371094 222.8467407226562 279.5364379882812 223.0446319580078 279.735107421875 223.2425079345703 C 280.0977478027344 223.6036987304688 280.4727172851562 223.9771728515625 280.8463439941406 224.3404388427734 C 280.8584899902344 224.3522186279297 280.8738708496094 224.371337890625 280.89013671875 224.3915557861328 C 280.958740234375 224.4767608642578 281.0735473632812 224.6193695068359 281.2889709472656 224.6193542480469 C 281.3472900390625 224.6193389892578 281.4093322753906 224.6082458496094 281.4734191894531 224.5863494873047 L 281.6087646484375 224.5401000976562 L 281.6087646484375 224.3970947265625 L 281.60888671875 223.7560729980469 C 281.6091003417969 223.3201904296875 281.6089477539062 222.8843231201172 281.6087951660156 222.4484558105469 C 281.6083679199219 221.2676086425781 281.60791015625 220.0465393066406 281.6155395507812 218.8459930419922 C 281.6185607910156 218.3592681884766 281.7001037597656 218.2185211181641 281.9790954589844 218.2185211181641 C 282.2610473632812 218.2185211181641 282.3298950195312 218.3407897949219 282.3298950195312 218.8414916992188 L 282.3302001953125 220.5934143066406 L 282.3305358886719 222.6148376464844 L 282.3305358886719 224.5841064453125 L 282.3305358886719 225.0323486328125 L 282.6641235351562 224.7329406738281 C 282.7510986328125 224.6548919677734 282.8256225585938 224.5892181396484 282.8916015625 224.5310974121094 C 283.0146179199219 224.4226989746094 283.1117858886719 224.3370666503906 283.2041931152344 224.2462005615234 C 283.4282836914062 224.0261535644531 283.6512145996094 223.8047485351562 283.8741760253906 223.5833587646484 C 284.1854248046875 223.2742462158203 284.5072937011719 222.9546356201172 284.8270263671875 222.6442260742188 C 284.9117431640625 222.5619506835938 285.0388793945312 222.4638977050781 285.1634216308594 222.4638977050781 C 285.2401428222656 222.4638977050781 285.3147583007812 222.502197265625 285.3915405273438 222.5809936523438 C 285.5475463867188 222.7409820556641 285.5325317382812 222.9168243408203 285.3469848632812 223.1036682128906 C 284.2444458007812 224.2127532958984 283.2552185058594 225.1938629150391 282.3227844238281 226.1029815673828 C 282.2116394042969 226.2113494873047 282.1010131835938 226.2662963867188 281.9940490722656 226.2662963867188 Z" stroke="none"/>
      <path d="M 281.9940490722656 226.0662994384766 C 282.06005859375 226.0662994384766 282.1333312988281 226.0083770751953 282.1831665039062 225.9597778320312 C 283.1148376464844 225.0513916015625 284.1033630371094 224.0710144042969 285.205078125 222.9627532958984 C 285.3460388183594 222.8207855224609 285.2941589355469 222.767578125 285.2483520507812 222.7205963134766 C 285.2142333984375 222.6856231689453 285.1817016601562 222.6638946533203 285.1634216308594 222.6638946533203 C 285.1375732421875 222.6638946533203 285.0670166015625 222.6899566650391 284.9663391113281 222.7877349853516 C 284.6474304199219 223.0973358154297 284.3259582519531 223.4165649414062 284.0151062011719 223.7252655029297 C 283.7918701171875 223.9469299316406 283.5686645507812 224.1685943603516 283.3444213867188 224.3887939453125 C 283.2481079101562 224.4835205078125 283.1491394042969 224.5707244873047 283.0238342285156 224.68115234375 C 282.958251953125 224.7389373779297 282.8841552734375 224.80419921875 282.7977294921875 224.8817901611328 L 282.1305541992188 225.4805755615234 L 282.1299133300781 218.8414916992188 C 282.1299133300781 218.5478820800781 282.1028137207031 218.4572906494141 282.0809936523438 218.4337615966797 C 282.0807800292969 218.4336090087891 282.0564270019531 218.4185180664062 281.9790954589844 218.4185180664062 C 281.8816528320312 218.4185180664062 281.87255859375 218.4377136230469 281.8629150390625 218.4580383300781 C 281.8173522949219 218.55419921875 281.8160705566406 218.7595367431641 281.8155212402344 218.8472595214844 C 281.8079223632812 220.0471496582031 281.808349609375 221.2678527832031 281.8087768554688 222.4483795166016 C 281.8089599609375 222.8843078613281 281.8091125488281 223.3202362060547 281.8088684082031 223.7561798095703 L 281.8087463378906 224.6830902099609 L 281.5381469726562 224.7755889892578 C 281.4531860351562 224.8046264648438 281.3693542480469 224.8193511962891 281.2890014648438 224.8193511962891 C 280.977783203125 224.8193664550781 280.8133850097656 224.6151428222656 280.734375 224.5169982910156 C 280.7247009277344 224.5049896240234 280.7114562988281 224.4885406494141 280.7069396972656 224.4838409423828 C 280.3324584960938 224.1197357177734 279.95703125 223.7458190917969 279.5939636230469 223.3842163085938 C 279.3954467773438 223.1865081787109 279.1969299316406 222.9887847900391 278.9977722167969 222.7918243408203 C 278.8875122070312 222.6828155517578 278.8192138671875 222.658935546875 278.8021850585938 222.658935546875 C 278.7978210449219 222.658935546875 278.7705383300781 222.6688842773438 278.7254943847656 222.7148895263672 C 278.6621704101562 222.7795715332031 278.6272583007812 222.8152008056641 278.8045654296875 222.9922485351562 C 279.3067932128906 223.4935913085938 279.8098449707031 223.9941101074219 280.3129272460938 224.4946441650391 C 280.788818359375 224.9681091308594 281.2647399902344 225.4415893554688 281.7398376464844 225.9157104492188 C 281.8357849121094 226.0114135742188 281.9284362792969 226.0662994384766 281.9940490722656 226.0662994384766 M 281.9940490722656 226.4662933349609 C 281.8120422363281 226.4662933349609 281.6308898925781 226.3719940185547 281.4573669433594 226.1989288330078 C 280.4798278808594 225.2234191894531 279.499267578125 224.2509460449219 278.52197265625 223.2753295898438 C 278.2663269042969 223.0200653076172 278.1533508300781 222.7274169921875 278.4397277832031 222.4350128173828 C 278.7291564941406 222.1393432617188 279.0209045410156 222.2522277832031 279.2789916992188 222.5073547363281 C 279.8482360839844 223.0703430175781 280.4118041992188 223.6389923095703 280.9857788085938 224.1970520019531 C 281.0865783691406 224.2949676513672 281.1542358398438 224.4840393066406 281.4087524414062 224.3970947265625 C 281.4087524414062 224.18994140625 281.4087524414062 223.9730072021484 281.4088745117188 223.7559661865234 C 281.4097290039062 222.1188507080078 281.4051513671875 220.4817352294922 281.41552734375 218.8447265625 C 281.4179382324219 218.4582672119141 281.4544677734375 218.0185241699219 281.9790954589844 218.0185241699219 C 282.505859375 218.0185241699219 282.5299072265625 218.4433288574219 282.5299072265625 218.8414916992188 C 282.5301513671875 220.0992584228516 282.5302734375 221.3570251464844 282.5305480957031 222.6147918701172 C 282.5305480957031 223.2255401611328 282.5305480957031 223.8362731933594 282.5305480957031 224.5841064453125 C 282.7799072265625 224.3603057861328 282.9276123046875 224.2376861572266 283.06396484375 224.1035919189453 C 283.6065673828125 223.5707550048828 284.1419677734375 223.0305633544922 284.6877136230469 222.500732421875 C 284.9465637207031 222.2493286132812 285.2522277832031 222.1514892578125 285.5347900390625 222.44140625 C 285.7883605957031 222.7014923095703 285.7256469726562 223.0061950683594 285.4888916015625 223.2445983886719 C 284.4871826171875 224.2522735595703 283.479736328125 225.2542877197266 282.46240234375 226.2461853027344 C 282.3084716796875 226.3962554931641 282.1509399414062 226.4662933349609 281.9940490722656 226.4662933349609 Z" stroke="none" fill="#fff"/>
    </g>
  </g>
</svg>
