<svg xmlns="http://www.w3.org/2000/svg" width="28.499" height="28.501" viewBox="0 0 28.499 28.501">
  <g id="Group_10" data-name="Group 10" transform="translate(-669.823 296.914)">
    <path id="Path_12" data-name="Path 12" d="M670.073-278.361a1.514,1.514,0,0,1,1.631-1.1h2.4a1.467,1.467,0,0,1,1.482.909c.063.145.135.168.272.107.324-.145.662-.262.976-.424a5.424,5.424,0,0,1,3.689-.425c1.032.208,2.079.344,3.114.511.061-.082,0-.132-.029-.181a7.654,7.654,0,0,1-.753-5.65,12.784,12.784,0,0,1,2.686-5.488c.115-.138.114-.206-.028-.322a1.353,1.353,0,0,1-.478-1.564,1.347,1.347,0,0,1,1.31-.978c.206-.011.22-.094.165-.262-.185-.562-.363-1.126-.542-1.69a.863.863,0,0,1,.638-1.222,11.406,11.406,0,0,1,2.4-.5.8.8,0,0,0,.131-.034h1.967a.8.8,0,0,0,.131.035,11.4,11.4,0,0,1,2.374.49.865.865,0,0,1,.654,1.235q-.265.861-.549,1.716c-.056.168-.023.219.161.229A1.4,1.4,0,0,1,695.2-292a1.389,1.389,0,0,1-.488,1.584c-.135.111-.133.177-.025.3a11.136,11.136,0,0,1,1.323,1.9,12.01,12.01,0,0,1,1.593,5.173,7.165,7.165,0,0,1-.671,3.476c-.058.125-.147.228.082.3a1.393,1.393,0,0,1,1.034,1.186,1.492,1.492,0,0,1-.645,1.5q-4.909,3.7-9.812,7.4a2.39,2.39,0,0,1-2.167.419q-3.123-.841-6.245-1.686l-3.188-.862c-.14-.038-.271-.1-.339.126a1.446,1.446,0,0,1-1.532,1.135c-.783,0-1.567-.017-2.349.006a1.6,1.6,0,0,1-1.7-1.052ZM690.112-290.1c-.938,0-1.876.015-2.813-.008a.881.881,0,0,0-.747.345,11.77,11.77,0,0,0-2.776,5.638,6.506,6.506,0,0,0,1.174,5.374.62.62,0,0,0,.428.256c1.518.241,3.033.494,4.553.723a1.742,1.742,0,0,1,1.481.919c.09.186.211.079.317.019q1.737-.978,3.473-1.958a1.033,1.033,0,0,0,.372-.351,6.516,6.516,0,0,0,.9-4.973,11.574,11.574,0,0,0-2.891-5.755.639.639,0,0,0-.518-.233C692.079-290.091,691.1-290.1,690.112-290.1Zm-4.493,14.4H689.8a2.055,2.055,0,0,0,.273-.008.5.5,0,0,0,.475-.479.485.485,0,0,0-.42-.522c-.284-.063-.572-.107-.859-.153-3.016-.486-6.034-.963-9.048-1.463a4.227,4.227,0,0,0-2.439.141c-.6.259-1.2.528-1.806.776a.375.375,0,0,0-.269.408c.009,1.347,0,2.695,0,4.042,0,.539,0,.54.526.682q4.689,1.269,9.378,2.542a1.547,1.547,0,0,0,1.435-.274q4.813-3.642,9.635-7.272c.378-.285.483-.581.3-.844s-.45-.281-.872-.043q-2.258,1.278-4.517,2.552a1.13,1.13,0,0,0-.368.316,1.386,1.386,0,0,1-.99.565,1.139,1.139,0,0,0-.439.136c-.895.508-1.794,1.007-2.686,1.519a1.464,1.464,0,0,1-1.622-.037c-.74-.465-1.486-.92-2.224-1.388a1.2,1.2,0,0,0-.691-.2c-.436.007-.873-.012-1.31-.028a.475.475,0,0,1-.5-.474.482.482,0,0,1,.506-.491c.073,0,.146,0,.218,0Zm-10.917.976c0-1.055,0-2.111,0-3.166,0-.4-.162-.559-.566-.56q-1.269,0-2.539,0c-.4,0-.568.157-.569.563q-.008,3.139,0,6.278c0,.4.172.555.574.556q1.255,0,2.511,0c.446,0,.588-.142.589-.587Q674.7-273.184,674.7-274.726Zm15.423-18.238c.738,0,1.475-.006,2.213,0a.305.305,0,0,0,.352-.251c.171-.576.351-1.149.544-1.718.071-.208.018-.291-.187-.349a10.593,10.593,0,0,0-5.9.014c-.2.058-.2.146-.148.314.191.57.379,1.14.547,1.717a.333.333,0,0,0,.392.273C688.668-292.972,689.4-292.964,690.125-292.964Zm.027,1.006c-1.238,0-2.477,0-3.715,0-.3,0-.46.158-.462.421a.4.4,0,0,0,.456.429q3.688.005,7.376,0a.428.428,0,0,0,.424-.242c.152-.315-.058-.609-.445-.61C692.574-291.961,691.363-291.958,690.152-291.959Zm-5.221,17.271-.019.045c.423.256.845.514,1.269.767a.251.251,0,0,0,.238.016c.482-.255.96-.519,1.439-.78l-.026-.049Z" transform="translate(0)" fill="#fff" stroke="#fff" stroke-width="0.5"/>
    <path id="Path_13" data-name="Path 13" d="M994.951-145.8c0-.309-.019-.62.006-.928a.414.414,0,0,0-.332-.49,2.337,2.337,0,0,1-1.233-3.353,2.243,2.243,0,0,1,1.289-1.077.449.449,0,0,0,.325-.29.441.441,0,0,1,.445-.3.435.435,0,0,1,.446.3.465.465,0,0,0,.349.3,2.384,2.384,0,0,1,1.568,2.08.537.537,0,0,1-.46.631c-.3.021-.518-.2-.542-.554a1.327,1.327,0,0,0-.658-1.1c-.133-.083-.2-.065-.2.1,0,.764.005,1.529,0,2.293,0,.189.125.215.255.262a2.364,2.364,0,0,1,1.608,2.16,2.356,2.356,0,0,1-1.573,2.294.478.478,0,0,0-.347.3.443.443,0,0,1-.448.3.448.448,0,0,1-.445-.3.46.46,0,0,0-.323-.291,2.331,2.331,0,0,1-1.575-1.925,1.2,1.2,0,0,1-.008-.353.456.456,0,0,1,.424-.428.464.464,0,0,1,.526.336,1.93,1.93,0,0,1,.052.322,1.317,1.317,0,0,0,.627.976c.147.1.228.092.223-.118C994.945-145.04,994.95-145.422,994.951-145.8Zm0-3.578c0-.354-.005-.707,0-1.061,0-.206-.056-.239-.234-.132a1.375,1.375,0,0,0,.034,2.323c.167.095.2.042.2-.123C994.947-148.711,994.951-149.047,994.951-149.382Zm1.007,3.682c0,.345,0,.69,0,1.034,0,.186.047.23.217.13a1.373,1.373,0,0,0,.01-2.31c-.185-.113-.233-.058-.228.138C995.964-146.372,995.958-146.036,995.958-145.7Z" transform="translate(-305.331 -136.517)" fill="#fff" stroke="#fff" stroke-width="0.5"/>
    <path id="Path_14" data-name="Path 14" d="M704.659,137.18c.172,0,.346-.012.517,0a.484.484,0,0,1,.453.462.465.465,0,0,1-.379.495,3.13,3.13,0,0,1-1.162,0,.468.468,0,0,1-.37-.527.474.474,0,0,1,.451-.431c.162-.013.326,0,.49,0Z" transform="translate(-31.8 -410.089)" fill="#fff" stroke="#fff" stroke-width="0.5"/>
    <path id="Path_15" data-name="Path 15" d="M704.664,52.436c-.164,0-.329.011-.491,0a.483.483,0,0,1-.076-.949,2.939,2.939,0,0,1,1.193,0,.448.448,0,0,1,.352.49.482.482,0,0,1-.432.455.392.392,0,0,1-.054,0h-.491Z" transform="translate(-31.815 -329.034)" fill="#fff" stroke="#fff" stroke-width="0.5"/>
  </g>
</svg>
