<svg xmlns="http://www.w3.org/2000/svg" width="26.099" height="24.199" viewBox="0 0 26.099 24.199">
  <g id="Group_3" data-name="Group 3" transform="translate(-171.936 -220.338)">
    <path id="Path_1" data-name="Path 1" d="M183.685,255.226q-3.567,0-7.133,0c-2.654,0-4.326-1.492-4.362-4.133q-.105-7.54,0-15.082c.037-2.661,1.68-4.128,4.353-4.132q5.512-.008,11.024,0a6.156,6.156,0,0,1,.648.017.65.65,0,0,1,.657.681.665.665,0,0,1-.658.687,5.764,5.764,0,0,1-.728.021q-5.35,0-10.7,0c-2.167,0-3.112.945-3.113,3.1q0,7.219,0,14.437c0,1.994.969,2.988,2.977,2.994q7.012.023,14.023,0a2.561,2.561,0,0,0,2.892-2.884c.009-2.473,0-4.947,0-7.42a6.73,6.73,0,0,1,.031-.8c.053-.434.228-.8.741-.8.562,0,.728.4.728.873,0,2.957.053,5.916-.023,8.871a3.812,3.812,0,0,1-3.82,3.564c-2.512.025-5.026.006-7.538.006Z" transform="translate(0 -10.892)" fill="#fff" stroke="#fff" stroke-width="0.4"/>
    <path id="Path_2" data-name="Path 2" d="M219.279,274.073c.153,1.071.647,1.5,1.621,1.366a.639.639,0,0,1,.771.641.66.66,0,0,1-.741.764,1.676,1.676,0,0,0-1.256.375,2.911,2.911,0,0,0-.615.79,2.881,2.881,0,0,1-2.512,1.39c-.428.017-.857,0-1.433,0a5.484,5.484,0,0,0,1.14,1.241c.793.768,1.607,1.515,2.409,2.274.381.361.668.795.224,1.252s-.888.169-1.264-.187q-2.376-2.251-4.746-4.508c-.274-.261-.578-.528-.423-.967.166-.47.574-.509,1-.508q1.337,0,2.673,0a2.151,2.151,0,0,0,1.483-.547c.115-.1.284-.214.213-.395s-.275-.136-.427-.137c-1.188-.006-2.376.009-3.564-.011-.583-.01-1.357.062-1.385-.744-.029-.865.755-.735,1.334-.74,1.242-.011,2.484,0,3.726-.008.174,0,.418.091.5-.139.071-.2-.109-.346-.231-.484a2.132,2.132,0,0,0-1.656-.713c-.918-.007-1.836-.006-2.754-.005-.479,0-.912-.131-.932-.67-.022-.6.429-.736.942-.736q3.686,0,7.372,0c.47,0,.9.094.921.664.021.615-.415.743-.927.742C220.261,274.072,219.783,274.073,219.279,274.073Z" transform="translate(-33.745 -45.069)" fill="#fff" stroke="#fff" stroke-width="0.4"/>
    <g id="Path_3" data-name="Path 3" transform="translate(-87.517 2.32)" fill="#fff">
      <path d="M 281.9066162109375 226.1011199951172 C 281.6360778808594 226.1011199951172 281.5570068359375 225.9640045166016 281.5540771484375 225.4898223876953 C 281.5466003417969 224.312255859375 281.5470581054688 223.1145782470703 281.5474548339844 221.9563293457031 C 281.5476379394531 221.5294799804688 281.5477905273438 221.1026153564453 281.5475769042969 220.6757659912109 L 281.5474243164062 220.0472717285156 L 281.5474243164062 219.9042510986328 L 281.412109375 219.8580169677734 C 281.3488464355469 219.8363952636719 281.28759765625 219.8254547119141 281.2300109863281 219.8254547119141 C 281.0168762207031 219.8254547119141 280.9036254882812 219.9661560058594 280.8359375 220.0502319335938 C 280.820068359375 220.0699768066406 280.8050537109375 220.0886383056641 280.7933959960938 220.0999450683594 C 280.4267883300781 220.4563751220703 280.0589294433594 220.82275390625 279.7031860351562 221.1770477294922 C 279.5085754394531 221.3708801269531 279.31396484375 221.564697265625 279.1186828613281 221.7578582763672 C 278.9957885742188 221.8793640136719 278.8827514648438 221.943603515625 278.7918395996094 221.943603515625 C 278.7229919433594 221.943603515625 278.6535034179688 221.9067993164062 278.5793762207031 221.8310852050781 C 278.4683227539062 221.7176666259766 278.3737182617188 221.5729064941406 278.6584167480469 221.2886199951172 C 279.1526489257812 220.7952270507812 279.6477661132812 220.3026580810547 280.1428833007812 219.8100433349609 C 280.6076049804688 219.3476867675781 281.0723266601562 218.8853149414062 281.536376953125 218.4222412109375 C 281.671875 218.2870635986328 281.8013916015625 218.2185211181641 281.9212646484375 218.2185211181641 C 282.0250854492188 218.2185211181641 282.1326293945312 218.2720184326172 282.2408447265625 218.3775482177734 C 283.1558227539062 219.2696533203125 284.1257019042969 220.2315673828125 285.2059020996094 221.3182525634766 C 285.385986328125 221.4995269775391 285.4006958007812 221.6700744628906 285.2495422363281 221.8251037597656 C 285.1750183105469 221.9015960693359 285.102783203125 221.9387664794922 285.0286560058594 221.9387664794922 C 284.9078674316406 221.9387664794922 284.7841491699219 221.8432159423828 284.7016296386719 221.7630767822266 C 284.3884582519531 221.4590454101562 284.0732116699219 221.14599609375 283.7683715820312 220.8432769775391 C 283.5494384765625 220.6258697509766 283.3305053710938 220.4084777832031 283.1103820800781 220.1923217773438 C 283.0197448730469 220.1031951904297 282.9243469238281 220.0191345214844 282.8035888671875 219.9127197265625 C 282.7389831542969 219.8558044433594 282.6659851074219 219.7914733886719 282.5808410644531 219.7150726318359 L 282.2472839355469 219.4157104492188 L 282.2472839355469 219.8639221191406 L 282.2472839355469 221.7947082519531 L 282.2469177246094 223.9807739257812 L 282.2467041015625 225.4942016601562 C 282.2467041015625 225.9820098876953 282.1799621582031 226.1011199951172 281.9066162109375 226.1011199951172 Z" stroke="none"/>
      <path d="M 281.9212951660156 218.4185180664062 L 281.9212951660156 218.4185180664062 C 281.8590393066406 218.4185333251953 281.7702026367188 218.4715118408203 281.6776733398438 218.5638122558594 C 281.2135314941406 219.0269470214844 280.7487182617188 219.4893951416016 280.283935546875 219.9518432617188 C 279.7889099121094 220.4443511962891 279.2938842773438 220.9368438720703 278.7997436523438 221.4301452636719 C 278.63134765625 221.5982971191406 278.6636352539062 221.6312561035156 278.7223205566406 221.6911926269531 C 278.7610168457031 221.7307281494141 278.7863464355469 221.7425994873047 278.7918395996094 221.7436065673828 C 278.8065795898438 221.7436065673828 278.8724060058594 221.7201080322266 278.97802734375 221.6156463623047 C 279.1731567382812 221.4226684570312 279.3676147460938 221.22900390625 279.5620727539062 221.0353393554688 C 279.918212890625 220.6806182861328 280.2865295410156 220.3138275146484 280.6531372070312 219.9573974609375 C 280.6580505371094 219.9522552490234 280.6708374023438 219.9364013671875 280.6801452636719 219.9248199462891 C 280.7522583007812 219.8352355957031 280.921142578125 219.6254577636719 281.2300109863281 219.6254577636719 C 281.3096313476562 219.6254577636719 281.3926391601562 219.6400146484375 281.4767456054688 219.6687469482422 L 281.7474365234375 219.7612152099609 L 281.74755859375 220.6756744384766 C 281.747802734375 221.1025848388672 281.7476196289062 221.5294952392578 281.7474670410156 221.9564056396484 C 281.7470397949219 223.1143035888672 281.7466125488281 224.3116455078125 281.7540588378906 225.4885864257812 C 281.7545776367188 225.5740356445312 281.7558288574219 225.7741241455078 281.7997741699219 225.8668365478516 C 281.8081359863281 225.8844757080078 281.8160400390625 225.901123046875 281.9066162109375 225.901123046875 C 281.9747924804688 225.9011383056641 282.0000305175781 225.8881530761719 281.9999389648438 225.8893890380859 C 282.0309448242188 225.8528289794922 282.0466918945312 225.7198944091797 282.0466918945312 225.4941558837891 L 282.0472717285156 218.9674835205078 L 282.7144165039062 219.5662231445312 C 282.799072265625 219.6421661376953 282.8716125488281 219.7060852050781 282.9358215332031 219.7626647949219 C 283.0588684082031 219.87109375 283.1560668945312 219.9567565917969 283.25048828125 220.0496063232422 C 283.4709167480469 220.2660369873047 283.6900939941406 220.4836883544922 283.9092712402344 220.7013549804688 C 284.2137451171875 221.0037078857422 284.528564453125 221.3163299560547 284.8410034179688 221.6196136474609 C 284.9380187988281 221.7138671875 285.0061645507812 221.7387542724609 285.0286560058594 221.7387542724609 C 285.04150390625 221.7387542724609 285.0704650878906 221.7223052978516 285.1063537597656 221.6854858398438 C 285.1507873535156 221.6399230957031 285.1967163085938 221.5927886962891 285.0640563964844 221.4592437744141 C 283.984619140625 220.3733215332031 283.0154418945312 219.4121246337891 282.1012268066406 218.5207366943359 C 282.0533752441406 218.4741058349609 281.9833374023438 218.4185180664062 281.9212951660156 218.4185180664062 M 281.9212646484375 218.0185241699219 C 282.0751037597656 218.0185089111328 282.2295532226562 218.0872039794922 282.3804626464844 218.2343444824219 C 283.3778991699219 219.2068481445312 284.3656616210938 220.1892700195312 285.3477478027344 221.17724609375 C 285.5798950195312 221.4109497070312 285.641357421875 221.709716796875 285.3927612304688 221.9647216796875 C 285.1158142089844 222.2488708496094 284.8161315917969 222.153076171875 284.5622863769531 221.9065551757812 C 284.0271911621094 221.3870849609375 283.5022888183594 220.8574523925781 282.9702453613281 220.3350219726562 C 282.8365783691406 220.2035827636719 282.6917724609375 220.0833435058594 282.447265625 219.8639221191406 C 282.447265625 220.5971374511719 282.447265625 221.1959228515625 282.447265625 221.7947082519531 C 282.447021484375 223.0278930664062 282.4468994140625 224.2610473632812 282.4466857910156 225.4942321777344 C 282.4466857910156 225.8846130371094 282.4230346679688 226.3011169433594 281.9066162109375 226.3011169433594 C 281.3922424316406 226.3011169433594 281.3564147949219 225.8699645996094 281.3540649414062 225.4910583496094 C 281.3439025878906 223.8860778808594 281.348388671875 222.2809753417969 281.3475646972656 220.6758728027344 C 281.3474426269531 220.4630737304688 281.3474426269531 220.2503967285156 281.3474426269531 220.0472717285156 C 281.0980529785156 219.9620666503906 281.0315856933594 220.1473999023438 280.9327392578125 220.243408203125 C 280.3699951171875 220.7905578613281 279.8174133300781 221.3480834960938 279.2593078613281 221.9000549316406 C 279.00634765625 222.1502075195312 278.7202453613281 222.2608947753906 278.4364624023438 221.9709777832031 C 278.1557006835938 221.6842956542969 278.2664489746094 221.3973693847656 278.5171203613281 221.1470947265625 C 279.4752807617188 220.1905517578125 280.4366760253906 219.2370910644531 281.3951110839844 218.2806701660156 C 281.5652160644531 218.1109771728516 281.7428283691406 218.0185394287109 281.9212646484375 218.0185241699219 Z" stroke="none" fill="#fff"/>
    </g>
  </g>
</svg>
