<svg xmlns="http://www.w3.org/2000/svg" width="20.958" height="18" viewBox="0 0 20.958 18">
  <g id="Group_14" data-name="Group 14" transform="translate(188.21 518.3)">
    <path id="Path_16" data-name="Path 16" d="M-182.515-279.552H-178c.318,0,.637.006.954-.008.166-.007.329.022.494.011s.354,0,.531,0h1.582c.21,0,.2,0,.276-.2a2.789,2.789,0,0,1,2.369-1.931,2.832,2.832,0,0,1,3.087,2,.145.145,0,0,0,.163.124c.48,0,.959,0,1.439,0,.122,0,.169.034.166.161q-.01.557,0,1.115c0,.129-.048.161-.168.16-.458-.005-.916,0-1.374,0a.215.215,0,0,0-.249.174,2.858,2.858,0,0,1-2.749,1.981,2.855,2.855,0,0,1-2.685-1.98.216.216,0,0,0-.247-.175q-6.6,0-13.2,0a1.23,1.23,0,0,0-.13,0c-.11.012-.151-.026-.149-.145.008-.389.006-.778,0-1.167,0-.1.024-.124.123-.124Q-185.141-279.549-182.515-279.552Zm12.5.719a1.439,1.439,0,0,0-1.426-1.443,1.453,1.453,0,0,0-1.451,1.433,1.441,1.441,0,0,0,1.427,1.444A1.436,1.436,0,0,0-170.011-278.833Z" transform="translate(-0.312 -230.461)" fill="#fff"/>
    <path id="Path_17" data-name="Path 17" d="M-171.668-42.045c-1.461,0-2.921,0-4.382,0a.2.2,0,0,0-.227.163,2.778,2.778,0,0,1-2.1,1.916,2.753,2.753,0,0,1-2.644-.759,2.7,2.7,0,0,1-.717-1.181.168.168,0,0,0-.194-.138q-1.893,0-3.786,0c-.722,0-1.443,0-2.165,0-.114,0-.158-.026-.156-.151.007-.389,0-.778,0-1.167,0-.115.061-.115.139-.115h3.073c.954,0,1.908,0,2.862,0a.211.211,0,0,0,.24-.167,2.784,2.784,0,0,1,2.319-1.954,2.738,2.738,0,0,1,2.294.685,2.765,2.765,0,0,1,.845,1.308c.036.116.108.126.206.125q1.232,0,2.463,0h6.249c.292,0,.262-.013.262.256q0,.48,0,.959c0,.216,0,.216-.21.216Zm-7.348.721a1.442,1.442,0,0,0,1.454-1.427,1.452,1.452,0,0,0-1.424-1.448,1.445,1.445,0,0,0-1.459,1.411A1.439,1.439,0,0,0-179.016-41.324Z" transform="translate(-0.166 -460.411)" fill="#fff"/>
    <path id="Path_18" data-name="Path 18" d="M-173.583-514.72h-5.627c-.186,0-.372.006-.557,0a.162.162,0,0,0-.183.138,2.84,2.84,0,0,1-1.018,1.449,2.81,2.81,0,0,1-1.429.561,2.751,2.751,0,0,1-1.489-.25,2.806,2.806,0,0,1-1.523-1.727.21.21,0,0,0-.245-.172c-.8.006-1.608,0-2.411.006-.122,0-.139-.037-.138-.146q.007-.6-.007-1.205c0-.1.054-.069.1-.069.817,0,1.634,0,2.45,0a.222.222,0,0,0,.254-.18,2.8,2.8,0,0,1,2.412-1.963,2.669,2.669,0,0,1,1.745.367,2.813,2.813,0,0,1,1.284,1.6.225.225,0,0,0,.26.18q6.093-.006,12.187,0a1,1,0,0,0,.117,0c.114-.013.151.036.15.148q-.008.57,0,1.141c0,.1-.032.13-.134.13q-2.106-.005-4.213,0Zm-7.662-.7a1.459,1.459,0,0,0-1.451-1.452,1.443,1.443,0,0,0-1.423,1.446,1.435,1.435,0,0,0,1.438,1.443A1.454,1.454,0,0,0-181.245-515.421Z" transform="translate(0 0)" fill="#fff"/>
  </g>
</svg>
